<?xml version="1.0" encoding="utf-8"?>
<!-- Generator: Adobe Illustrator 20.1.0, SVG Export Plug-In . SVG Version: 6.00 Build 0)  -->
<svg version="1.1" id="Layer_1" xmlns="http://www.w3.org/2000/svg" xmlns:xlink="http://www.w3.org/1999/xlink" x="0px" y="0px"
	 viewBox="0 0 822.9 504" style="enable-background:new 0 0 822.9 504;" xml:space="preserve">
<style type="text/css">
	.st0{fill:#FFFFFF;stroke:#FFFFFF;stroke-width:11;stroke-miterlimit:10;}
	.st1{fill:#FFFFFF;}
	.st2{fill:#084E97;stroke:#FFFFFF;stroke-miterlimit:10;}
	.st3{fill:#B61E23;}
	.st4{fill:none;}
	.st5{fill:#084E97;}
	.st6{fill-rule:evenodd;clip-rule:evenodd;fill:#B61E23;}
</style>
<path class="st0" d="M738.5,87.6C695.7,44.7,638.7,21.1,578,21.1c-57.6,0-112.2,21.5-154.4,60.6c-42.1-39.1-96.8-60.6-154.4-60.6
	c-60.6,0-117.6,23.6-160.5,66.5C66,130.4,42.4,187.4,42.4,248c0,60.6,23.6,117.6,66.5,160.5c42.9,42.9,99.9,66.5,160.5,66.5
	c57.6,0,112.2-21.5,154.4-60.6C465.8,453.5,520.5,475,578,475c60.6,0,117.6-23.6,160.5-66.5C781.4,365.7,805,308.7,805,248
	C805,187.4,781.4,130.4,738.5,87.6z"/>
<g>
	<path class="st1" d="M354.7,248c0,63.5,26.5,120.9,69,161.6c42.5-40.7,69-98.1,69-161.6s-26.5-120.9-69-161.6
		C381.2,127.2,354.7,184.5,354.7,248z"/>
</g>
<g>
	<path class="st2" d="M354.9,248c0-63.3,26.4-120.5,68.8-161.1c-40.1-38.4-94.5-62-154.4-62C146.1,24.9,46.2,124.8,46.2,248
		s99.9,223.1,223.1,223.1c59.9,0,114.3-23.6,154.4-62C381.3,368.6,354.9,311.4,354.9,248z"/>
	<path class="st3" d="M578,24.9c-59.9,0-114.3,23.6-154.4,62c42.4,40.6,68.8,97.8,68.8,161.1c0,63.3-26.4,120.5-68.8,161.1
		c40.1,38.4,94.5,62,154.4,62c123.2,0,223.1-99.9,223.1-223.1S701.3,24.9,578,24.9z"/>
</g>
<g>
	<path class="st1" d="M200.3,191.5H222c12.5,0,20.9,0.5,25.2,1.6c6.2,1.5,11.3,4.7,15.3,9.5c4,4.8,5.9,10.8,5.9,18
		c0,7.3-1.9,13.3-5.8,18c-3.9,4.7-9.2,7.9-16,9.5c-5,1.2-14.2,1.8-27.8,1.8h-7.8v50.8h-10.9V191.5z M211.2,202.2v37.1l18.5,0.2
		c7.5,0,12.9-0.7,16.4-2c3.5-1.4,6.2-3.6,8.2-6.6c2-3,3-6.4,3-10.2c0-3.7-1-7-3-10c-2-3-4.6-5.2-7.8-6.5c-3.2-1.3-8.6-1.9-15.9-1.9
		H211.2z"/>
	<path class="st1" d="M284.8,191.5h21.8c12.1,0,20.3,0.5,24.7,1.5c6.5,1.5,11.8,4.7,15.8,9.6c4.1,4.9,6.1,10.9,6.1,18
		c0,5.9-1.4,11.2-4.2,15.7c-2.8,4.5-6.8,7.9-12,10.2c-5.2,2.3-12.4,3.5-21.5,3.5l39.3,50.7h-13.5L301.9,250h-6.2v50.7h-10.9V191.5z
		 M295.7,202.2v37.1l18.8,0.1c7.3,0,12.7-0.7,16.2-2.1c3.5-1.4,6.2-3.6,8.2-6.6c2-3,2.9-6.4,2.9-10.2c0-3.7-1-7-3-10
		c-2-3-4.6-5.1-7.8-6.4c-3.2-1.3-8.6-1.9-16.1-1.9H295.7z"/>
	<path class="st1" d="M496.5,191.5h54.7v10.7h-43.8v34.2h43.8v10.7h-43.8v53.6h-10.9V191.5z"/>
	<path class="st1" d="M566.1,186.6c2.4,0,4.4,0.8,6.1,2.5c1.7,1.7,2.5,3.7,2.5,6.1c0,2.3-0.8,4.3-2.5,6c-1.7,1.7-3.7,2.5-6.1,2.5
		c-2.3,0-4.3-0.8-6-2.5c-1.7-1.7-2.5-3.7-2.5-6c0-2.4,0.8-4.4,2.5-6.1C561.8,187.5,563.7,186.6,566.1,186.6z M560.9,219.9h10.4v80.8
		h-10.4V219.9z"/>
	<path class="st1" d="M585.3,188.7h10.4v112h-10.4V188.7z"/>
	<path class="st1" d="M679.2,273.9l8.8,4.6c-2.9,5.6-6.2,10.2-10,13.7c-3.8,3.5-8,6.1-12.7,7.9c-4.7,1.8-10,2.7-16,2.7
		c-13.2,0-23.5-4.3-30.9-13c-7.4-8.6-11.1-18.4-11.1-29.3c0-10.2,3.1-19.4,9.4-27.4c8-10.2,18.7-15.3,32-15.3
		c13.8,0,24.8,5.2,33,15.7c5.8,7.4,8.8,16.6,8.9,27.6h-72.7c0.2,9.4,3.2,17.1,9,23.1c5.8,6,13,9,21.5,9c4.1,0,8.1-0.7,12-2.1
		c3.9-1.4,7.2-3.3,9.9-5.7C673.1,283,676,279.2,679.2,273.9z M679.2,252.1c-1.4-5.5-3.4-10-6.1-13.3c-2.7-3.3-6.2-6-10.5-8
		c-4.4-2-8.9-3-13.8-3c-7.9,0-14.7,2.5-20.4,7.6c-4.2,3.7-7.3,9.3-9.4,16.7H679.2z"/>
	<path class="st4" d="M400,205.7c-7.2,4.2-12.9,9.9-17,17c-4.1,7.1-6.1,15.1-6.1,23.9c0,13,4.5,23.9,13.5,32.9
		c9,8.9,20.2,13.4,32.9,13.4c0.3,0,0.1,0,1.1,0v-93.4c-1,0-0.9,0-1.1,0C415.2,199.3,407.2,201.4,400,205.7z"/>
	<path class="st4" d="M446.8,286.6c7.2-4.1,12.7-9.7,16.7-16.9c4-7.1,6-15.1,6-23.8c0-8.7-2.1-16.5-6.1-23.5
		c-4-7-9.4-12.6-16.7-16.8c-7.1-4.1-15.3-6.2-22.3-6.3v93.4C431.4,292.7,439.8,290.6,446.8,286.6z"/>
	<g>
		<path class="st5" d="M423.3,292.8c-12.7,0-23.7-4.5-32.7-13.4c-9-8.9-13.6-19.9-13.6-32.9c0-8.8,2-16.7,6.1-23.9
			c4.1-7.1,9.7-12.8,16.9-17c7.2-4.2,15.3-6.3,23.3-6.3c0.3,0,0.1,0,1.1,0v-10.6c-1,0-1.2,0-1.6,0c-10.2,0-19.9,2.5-28.6,7.6
			c-8.8,5.1-15.8,12.1-20.9,21c-5.1,9-7.7,18.7-7.7,29.2c0,15.7,5.5,29.2,16.7,40.2c11.1,11.1,25.2,16.6,41.4,16.6
			c0.1,0-0.3,0,0.7,0v-10.6C423.4,292.8,423.6,292.8,423.3,292.8z"/>
		<path class="st3" d="M480.7,246c0-16.1-5.2-29.7-16.4-40.8c-10.9-10.8-24.9-16.3-39.9-16.5v10.6c7,0.1,15.1,2.2,22.2,6.3
			c7.3,4.2,12.8,9.8,16.9,16.8c4,7,6,14.9,6,23.5c0,8.7-2.1,16.6-6.1,23.8c-4,7.1-9.3,12.8-16.5,16.9c-7,4-15.4,6-22.4,6.1v10.6
			c15-0.1,28.9-5.6,40-16.7C475.5,275.6,480.7,262,480.7,246z"/>
	</g>
	<path class="st6" d="M384,264.2l24.6-44.5c0,0,2.8-6,7-0.5c0,0.5,19.5,32.5,19.5,32.5h6.5c0,0,0.9-0.5,0-1.9L423,219.2
		c0,0-1.8-1.9,0-5.1l4.2-6.5c0,0,1.4-1.9,2.3,0l26,41.8c0,0,3.2,6-3.2,6.5h-37.6l-2.8,5.1c0,0-0.9,1.4,0.5,0.9l36.7-0.5
		c0,0,2.8,0,4.6,2.8c0,0.5,4.2,6.5,4.2,6.5s2.8,3.2-1.8,2.8c0,0.4-50.6,0.4-50.6,0.4s-4.6,0.5-3.7-3.7l19-34.3l-2.8-5.6
		c0,0-0.9-0.9-1.9,0c0.5,0.5-17.6,32-17.6,32s-1.4,2.8-4.2,2.8h-8.3C385.9,265.1,383.5,265.6,384,264.2L384,264.2z"/>
</g>
</svg>
